<svg width="307" height="46" viewBox="0 0 307 46" fill="none" xmlns="http://www.w3.org/2000/svg">
<path d="M35.7699 33.5H40.0753V26.8977H43.6946C48.3778 26.8977 51.1023 24.1037 51.1023 20.0369C51.1023 15.9901 48.4276 13.1364 43.804 13.1364H35.7699V33.5ZM40.0753 23.4474V16.6562H42.9787C45.4645 16.6562 46.6676 18.0085 46.6676 20.0369C46.6676 22.0554 45.4645 23.4474 42.9986 23.4474H40.0753ZM57.7642 33.7884C60.0213 33.7884 61.483 32.804 62.2287 31.3821H62.348V33.5H66.3651V23.1989C66.3651 19.5597 63.2827 18.0284 59.8821 18.0284C56.223 18.0284 53.8168 19.7784 53.2301 22.5625L57.1477 22.8807C57.4361 21.8665 58.3409 21.1207 59.8622 21.1207C61.304 21.1207 62.1293 21.8466 62.1293 23.0994V23.1591C62.1293 24.1435 61.0852 24.2727 58.4304 24.5312C55.4077 24.8097 52.6932 25.8239 52.6932 29.2344C52.6932 32.2571 54.8509 33.7884 57.7642 33.7884ZM58.9773 30.8651C57.6747 30.8651 56.7401 30.2585 56.7401 29.0952C56.7401 27.902 57.7244 27.3153 59.2159 27.1065C60.1406 26.9773 61.652 26.7585 62.1591 26.4205V28.0412C62.1591 29.642 60.8366 30.8651 58.9773 30.8651ZM76.532 39.5455C80.897 39.5455 83.9993 37.5568 83.9993 33.6491V18.2273H79.7933V20.7926H79.6342C79.0675 19.5497 77.8246 18.0284 75.2692 18.0284C71.9183 18.0284 69.0845 20.6335 69.0845 25.8338C69.0845 30.9148 71.8388 33.2812 75.2791 33.2812C77.7152 33.2812 79.0774 32.0582 79.6342 30.7955H79.8132V33.5895C79.8132 35.6875 78.4709 36.5028 76.6314 36.5028C74.7621 36.5028 73.8175 35.6875 73.4695 34.7628L69.5518 35.2898C70.0589 37.696 72.4155 39.5455 76.532 39.5455ZM76.6214 30.0994C74.5433 30.0994 73.4098 28.4489 73.4098 25.8139C73.4098 23.2188 74.5234 21.3991 76.6214 21.3991C78.6797 21.3991 79.8331 23.1392 79.8331 25.8139C79.8331 28.5085 78.6598 30.0994 76.6214 30.0994ZM94.3303 33.7983C98.1087 33.7983 100.654 31.9588 101.251 29.125L97.3331 28.8665C96.9055 30.0298 95.8118 30.6364 94.3999 30.6364C92.282 30.6364 90.9396 29.2344 90.9396 26.9574V26.9474H101.34V25.7841C101.34 20.5938 98.1982 18.0284 94.1612 18.0284C89.6669 18.0284 86.7536 21.2202 86.7536 25.9332C86.7536 30.7756 89.6271 33.7983 94.3303 33.7983ZM90.9396 24.3224C91.0291 22.5824 92.3516 21.1903 94.2308 21.1903C96.0703 21.1903 97.343 22.5028 97.353 24.3224H90.9396ZM116.812 22.5824C116.434 19.7685 114.167 18.0284 110.309 18.0284C106.401 18.0284 103.826 19.8381 103.836 22.7812C103.826 25.0682 105.268 26.5497 108.251 27.1463L110.896 27.6733C112.228 27.9418 112.835 28.429 112.854 29.1946C112.835 30.0994 111.85 30.7457 110.369 30.7457C108.857 30.7457 107.853 30.0994 107.594 28.8565L103.428 29.0753C103.826 31.9986 106.312 33.7983 110.359 33.7983C114.316 33.7983 117.15 31.7798 117.16 28.767C117.15 26.5597 115.708 25.2372 112.745 24.6307L109.981 24.0739C108.559 23.7656 108.032 23.2784 108.042 22.5426C108.032 21.6278 109.066 21.0312 110.379 21.0312C111.85 21.0312 112.725 21.8366 112.934 22.821L116.812 22.5824Z" fill="white"/>
<path d="M4.31348 30.9H25.25V8.5H4.2557C2.32228 8.50642 0.756356 10.0872 0.75 12.0391V32.6646H0.750578C0.750578 32.6733 0.75 32.6821 0.75 32.6908C0.75 34.7558 2.35521 36.5 4.2557 36.5H25.25V34.6333H4.2557C3.38895 34.6333 2.59906 33.7076 2.59906 32.6908C2.59906 31.7202 3.38433 30.9 4.31348 30.9ZM6.29717 10.3859H11.8443V20.4671L9.04764 17.9885L6.29717 20.4525V10.3859ZM2.59906 12.0537C2.59617 11.1262 3.33695 10.3719 4.2557 10.3667H4.44811H6.29717H4.44811V22.9667H6.27637L9.05458 20.4782L11.8617 22.9667H13.6934V10.3667H23.4009V29.0333H6.30179H4.45274H4.31348C3.71196 29.0333 3.12141 29.192 2.59963 29.493V12.0537H2.59906Z" fill="#FFCA42"/>
<rect x="152" y="0.5" width="45" height="45" fill="white"/>
<path d="M177.719 24.5H175.375V31.5H172.25V24.5H169.719V21.5938H172.25V19.4062C172.25 18.1562 172.594 17.1979 173.281 16.5312C173.969 15.8438 174.885 15.5 176.031 15.5C176.365 15.5 176.719 15.5208 177.094 15.5625C177.469 15.5833 177.76 15.6146 177.969 15.6562L178.281 15.6875V18.1562H177.031C176.448 18.1562 176.021 18.3125 175.75 18.625C175.5 18.9167 175.375 19.2812 175.375 19.7188V21.5938H178.156L177.719 24.5Z" fill="#1B3764"/>
<rect x="207" y="0.5" width="45" height="45" fill="white"/>
<path d="M235.344 20.25C235.365 20.3333 235.375 20.4688 235.375 20.6562C235.375 21.7604 235.167 22.8646 234.75 23.9688C234.333 25.0521 233.74 26.0521 232.969 26.9688C232.219 27.8646 231.24 28.5938 230.031 29.1562C228.823 29.7188 227.49 30 226.031 30C224.198 30 222.521 29.5104 221 28.5312C221.229 28.5521 221.49 28.5625 221.781 28.5625C223.302 28.5625 224.667 28.0938 225.875 27.1562C225.146 27.1562 224.5 26.9479 223.938 26.5312C223.396 26.0938 223.021 25.5521 222.812 24.9062C223.021 24.9271 223.219 24.9375 223.406 24.9375C223.698 24.9375 223.99 24.9062 224.281 24.8438C223.531 24.6771 222.906 24.2917 222.406 23.6875C221.906 23.0833 221.656 22.3958 221.656 21.625V21.5625C222.115 21.8333 222.604 21.9792 223.125 22C222.146 21.3333 221.656 20.4167 221.656 19.25C221.656 18.6667 221.812 18.1146 222.125 17.5938C222.938 18.6146 223.927 19.4271 225.094 20.0312C226.281 20.6354 227.542 20.9688 228.875 21.0312C228.833 20.7812 228.812 20.5312 228.812 20.2812C228.812 19.3854 229.125 18.6146 229.75 17.9688C230.396 17.3229 231.167 17 232.062 17C233.021 17 233.823 17.3438 234.469 18.0312C235.219 17.8854 235.917 17.625 236.562 17.25C236.312 18.0208 235.833 18.625 235.125 19.0625C235.75 18.9792 236.375 18.8021 237 18.5312C236.542 19.1979 235.99 19.7708 235.344 20.25Z" fill="#1B3764"/>
<rect x="262" y="0.5" width="45" height="45" fill="white"/>
<path d="M280.125 28.5H277.219V19.1562H280.125V28.5ZM279.875 17.375C279.542 17.7083 279.146 17.875 278.688 17.875C278.229 17.875 277.833 17.7083 277.5 17.375C277.167 17.0417 277 16.6458 277 16.1875C277 15.7292 277.167 15.3333 277.5 15C277.833 14.6667 278.229 14.5 278.688 14.5C279.146 14.5 279.542 14.6667 279.875 15C280.208 15.3333 280.375 15.7292 280.375 16.1875C280.375 16.6458 280.208 17.0417 279.875 17.375ZM291 28.5H288.094V23.9375C288.094 23.5833 288.083 23.3021 288.062 23.0938C288.042 22.8646 287.99 22.6146 287.906 22.3438C287.823 22.0521 287.667 21.8333 287.438 21.6875C287.229 21.5417 286.948 21.4688 286.594 21.4688C285.906 21.4688 285.438 21.6875 285.188 22.125C284.958 22.5625 284.844 23.1458 284.844 23.875V28.5H281.938V19.1562H284.75V20.4375H284.781C284.99 20.0208 285.333 19.6667 285.812 19.375C286.292 19.0625 286.865 18.9062 287.531 18.9062C288.24 18.9062 288.823 19.0208 289.281 19.25C289.76 19.4583 290.115 19.7812 290.344 20.2188C290.594 20.6354 290.76 21.0938 290.844 21.5938C290.948 22.0938 291 22.6875 291 23.375V28.5Z" fill="#1B3764"/>
</svg>
